<svg width="21" height="19" viewBox="0 0 21 19" fill="none" xmlns="http://www.w3.org/2000/svg">
<g filter="url(#filter0_d_16823_16015)">
<path d="M4.16656 14.7525V10.0858C4.16656 9.90174 4.3158 9.7525 4.4999 9.7525H15.8332C16.0173 9.7525 16.1666 9.90174 16.1666 10.0858V14.7525C16.1666 14.9366 16.0173 15.0858 15.8332 15.0858H4.4999C4.3158 15.0858 4.16656 14.9366 4.16656 14.7525Z" stroke="white"/>
<path d="M8.83322 15.0858V9.7525H11.4999V15.0858H8.83322Z" stroke="white"/>
</g>
<g filter="url(#filter1_d_16823_16015)">
<path d="M3.5 9.41913V6.75246C3.5 6.56837 3.64924 6.41913 3.83333 6.41913H16.5C16.6841 6.41913 16.8333 6.56837 16.8333 6.75246V9.41913C16.8333 9.60322 16.6841 9.75246 16.5 9.75246H3.83333C3.64924 9.75246 3.5 9.60322 3.5 9.41913Z" stroke="white" shape-rendering="crispEdges"/>
</g>
<g filter="url(#filter2_d_16823_16015)">
<path d="M10.1666 6.41915L12.1759 3.90753C12.5423 3.44961 13.206 3.36535 13.6752 3.7172C14.4065 4.26572 14.174 5.41732 13.2871 5.63905L10.1666 6.41915ZM10.1666 6.41915L8.15735 3.90753C7.79102 3.44961 7.12727 3.36535 6.65814 3.7172C5.92678 4.26572 6.15933 5.41732 7.04624 5.63905L10.1666 6.41915Z" stroke="white" shape-rendering="crispEdges"/>
</g>
<path d="M8.83331 9.75246V6.41913H11.5V9.75246H8.83331Z" stroke="white"/>
<defs>
<filter id="filter0_d_16823_16015" x="0.666565" y="6.2525" width="19" height="12.3333" filterUnits="userSpaceOnUse" color-interpolation-filters="sRGB">
<feFlood flood-opacity="0" result="BackgroundImageFix"/>
<feColorMatrix in="SourceAlpha" type="matrix" values="0 0 0 0 0 0 0 0 0 0 0 0 0 0 0 0 0 0 127 0" result="hardAlpha"/>
<feOffset/>
<feGaussianBlur stdDeviation="1.5"/>
<feComposite in2="hardAlpha" operator="out"/>
<feColorMatrix type="matrix" values="0 0 0 0 0 0 0 0 0 0 0 0 0 0 0 0 0 0 0.25 0"/>
<feBlend mode="normal" in2="BackgroundImageFix" result="effect1_dropShadow_16823_16015"/>
<feBlend mode="normal" in="SourceGraphic" in2="effect1_dropShadow_16823_16015" result="shape"/>
</filter>
<filter id="filter1_d_16823_16015" x="0" y="2.91913" width="20.3333" height="10.3333" filterUnits="userSpaceOnUse" color-interpolation-filters="sRGB">
<feFlood flood-opacity="0" result="BackgroundImageFix"/>
<feColorMatrix in="SourceAlpha" type="matrix" values="0 0 0 0 0 0 0 0 0 0 0 0 0 0 0 0 0 0 127 0" result="hardAlpha"/>
<feOffset/>
<feGaussianBlur stdDeviation="1.5"/>
<feComposite in2="hardAlpha" operator="out"/>
<feColorMatrix type="matrix" values="0 0 0 0 0 0 0 0 0 0 0 0 0 0 0 0 0 0 0.25 0"/>
<feBlend mode="normal" in2="BackgroundImageFix" result="effect1_dropShadow_16823_16015"/>
<feBlend mode="normal" in="SourceGraphic" in2="effect1_dropShadow_16823_16015" result="shape"/>
</filter>
<filter id="filter2_d_16823_16015" x="2.72302" y="0" width="14.8872" height="9.93451" filterUnits="userSpaceOnUse" color-interpolation-filters="sRGB">
<feFlood flood-opacity="0" result="BackgroundImageFix"/>
<feColorMatrix in="SourceAlpha" type="matrix" values="0 0 0 0 0 0 0 0 0 0 0 0 0 0 0 0 0 0 127 0" result="hardAlpha"/>
<feOffset/>
<feGaussianBlur stdDeviation="1.5"/>
<feComposite in2="hardAlpha" operator="out"/>
<feColorMatrix type="matrix" values="0 0 0 0 0 0 0 0 0 0 0 0 0 0 0 0 0 0 0.25 0"/>
<feBlend mode="normal" in2="BackgroundImageFix" result="effect1_dropShadow_16823_16015"/>
<feBlend mode="normal" in="SourceGraphic" in2="effect1_dropShadow_16823_16015" result="shape"/>
</filter>
</defs>
</svg>